<svg id="Group_1108" data-name="Group 1108" xmlns="http://www.w3.org/2000/svg" width="50.196" height="50.275" viewBox="0 0 50.196 50.275">
  <g id="Group_1078" data-name="Group 1078" transform="translate(0 32.049)">
    <g id="Group_1075" data-name="Group 1075" transform="translate(0 0)">
      <path id="Path_1131" data-name="Path 1131" d="M244.31,447.654v6.179l7.009-7.31a6.458,6.458,0,0,1,.859-.781,1.6,1.6,0,0,1,.944-.252,1.733,1.733,0,0,1,1.244.451,1.458,1.458,0,0,1,.475,1.1,2.187,2.187,0,0,1-.805,1.551L249.7,452.7l5,7.166a9.034,9.034,0,0,1,.794,1.3,2.542,2.542,0,0,1,.264,1.088,1.355,1.355,0,0,1-.463,1.022,1.766,1.766,0,0,1-1.256.433,2.121,2.121,0,0,1-1.214-.319,2.736,2.736,0,0,1-.793-.848q-.325-.529-.577-.962l-4.22-6.492-2.921,2.8v3.642a2.32,2.32,0,0,1-.5,1.641,1.708,1.708,0,0,1-1.3.535,1.748,1.748,0,0,1-.878-.24,1.681,1.681,0,0,1-.649-.65,2.115,2.115,0,0,1-.2-.781q-.036-.445-.036-1.287v-13.1a2.4,2.4,0,0,1,.475-1.623,1.633,1.633,0,0,1,1.293-.541,1.7,1.7,0,0,1,1.3.535A2.319,2.319,0,0,1,244.31,447.654Z" transform="translate(-240.739 -445.49)" fill="#f0e8de"/>
    </g>
    <g id="Group_1076" data-name="Group 1076" transform="translate(18.202 0.3)">
      <path id="Path_1132" data-name="Path 1132" d="M303.024,457.165h-3.27v4.989a2.329,2.329,0,0,1-.505,1.623,1.778,1.778,0,0,1-2.572.006,2.321,2.321,0,0,1-.493-1.6V448.593a2.219,2.219,0,0,1,.541-1.683,2.46,2.46,0,0,1,1.719-.5h4.581a12.006,12.006,0,0,1,3.126.313,4.658,4.658,0,0,1,1.869,1,4.506,4.506,0,0,1,1.2,1.707,6.009,6.009,0,0,1,.409,2.272,5.021,5.021,0,0,1-1.659,4.082A7.546,7.546,0,0,1,303.024,457.165Zm-.866-8.079h-2.4v5.386h2.4a7.163,7.163,0,0,0,2.11-.265,2.458,2.458,0,0,0,1.292-.865,2.583,2.583,0,0,0,.445-1.575,2.67,2.67,0,0,0-.685-1.9Q304.551,449.086,302.158,449.086Z" transform="translate(-296.183 -446.405)" fill="#f0e8de"/>
    </g>
    <g id="Group_1077" data-name="Group 1077" transform="translate(26.669 14.655)">
      <path id="Path_1133" data-name="Path 1133" d="M324.15,490.13h13.886a2.339,2.339,0,0,1,1.623.493,1.644,1.644,0,0,1,.541,1.274,1.7,1.7,0,0,1-.535,1.3,2.319,2.319,0,0,1-1.629.5H324.15a2.34,2.34,0,0,1-1.635-.5,1.692,1.692,0,0,1-.541-1.3,1.641,1.641,0,0,1,.547-1.268A2.345,2.345,0,0,1,324.15,490.13Z" transform="translate(-321.974 -490.13)" fill="#f0e8de"/>
    </g>
  </g>
  <g id="Group_1079" data-name="Group 1079" transform="translate(0.041 0)">
    <path id="Path_1134" data-name="Path 1134" d="M289.214,398.022a1.806,1.806,0,0,1-1.806-1.806V351.477H244.475v23.734a1.806,1.806,0,0,1-3.611,0v-25.54a1.806,1.806,0,0,1,1.806-1.806h46.544a1.806,1.806,0,0,1,1.806,1.806v46.544A1.806,1.806,0,0,1,289.214,398.022Z" transform="translate(-240.864 -347.866)" fill="#f0e8de"/>
  </g>
</svg>
