<svg xmlns="http://www.w3.org/2000/svg" width="49.922" height="50" viewBox="0 0 49.922 50">
  <g id="Group_1259" data-name="Group 1259" transform="translate(-38.563 -26)">
    <g id="Group_1257" data-name="Group 1257">
      <g id="Group_1082" data-name="Group 1082" transform="translate(38.563 26)">
        <g id="Group_1078" data-name="Group 1078" transform="translate(0 31.874)">
          <g id="Group_1075" data-name="Group 1075" transform="translate(0 0)">
            <path id="Path_1131" data-name="Path 1131" d="M244.29,447.642v6.145l6.971-7.27a6.421,6.421,0,0,1,.855-.777,1.587,1.587,0,0,1,.939-.251,1.723,1.723,0,0,1,1.237.448,1.45,1.45,0,0,1,.472,1.094,2.175,2.175,0,0,1-.8,1.542l-4.317,4.089,4.974,7.126a8.992,8.992,0,0,1,.789,1.3,2.528,2.528,0,0,1,.262,1.082,1.347,1.347,0,0,1-.46,1.016,1.756,1.756,0,0,1-1.25.43,2.11,2.11,0,0,1-1.208-.317,2.721,2.721,0,0,1-.789-.843q-.323-.527-.574-.957l-4.2-6.456-2.905,2.786v3.623a2.307,2.307,0,0,1-.5,1.632,1.7,1.7,0,0,1-1.291.532,1.738,1.738,0,0,1-.873-.239,1.671,1.671,0,0,1-.646-.646,2.1,2.1,0,0,1-.2-.777q-.036-.443-.036-1.28V447.642a2.387,2.387,0,0,1,.472-1.614,1.624,1.624,0,0,1,1.286-.538,1.691,1.691,0,0,1,1.3.532A2.306,2.306,0,0,1,244.29,447.642Z" transform="translate(-240.739 -445.49)" fill="#283046"/>
          </g>
          <g id="Group_1076" data-name="Group 1076" transform="translate(18.102 0.299)">
            <path id="Path_1132" data-name="Path 1132" d="M302.987,457.106h-3.252v4.962a2.316,2.316,0,0,1-.5,1.614,1.769,1.769,0,0,1-2.559.006,2.309,2.309,0,0,1-.49-1.6V448.581a2.207,2.207,0,0,1,.538-1.674,2.447,2.447,0,0,1,1.709-.5h4.556a11.941,11.941,0,0,1,3.109.311,4.633,4.633,0,0,1,1.859.992,4.481,4.481,0,0,1,1.19,1.7,5.977,5.977,0,0,1,.406,2.26,4.994,4.994,0,0,1-1.65,4.059A7.5,7.5,0,0,1,302.987,457.106Zm-.861-8.035h-2.391v5.356h2.391a7.125,7.125,0,0,0,2.1-.263,2.445,2.445,0,0,0,1.285-.861,2.569,2.569,0,0,0,.442-1.566,2.655,2.655,0,0,0-.682-1.889Q304.505,449.071,302.126,449.072Z" transform="translate(-296.183 -446.405)" fill="#283046"/>
          </g>
          <g id="Group_1077" data-name="Group 1077" transform="translate(26.523 14.575)">
            <path id="Path_1133" data-name="Path 1133" d="M324.138,490.13h13.81a2.326,2.326,0,0,1,1.614.49,1.635,1.635,0,0,1,.538,1.267,1.692,1.692,0,0,1-.532,1.3,2.306,2.306,0,0,1-1.62.5h-13.81a2.327,2.327,0,0,1-1.626-.5,1.682,1.682,0,0,1-.538-1.3,1.632,1.632,0,0,1,.544-1.261A2.333,2.333,0,0,1,324.138,490.13Z" transform="translate(-321.974 -490.13)" fill="#283046"/>
          </g>
        </g>
        <g id="Group_1079" data-name="Group 1079" transform="translate(0.041 0)">
          <path id="Path_1134" data-name="Path 1134" d="M288.95,397.748a1.8,1.8,0,0,1-1.8-1.8V351.457h-42.7v23.6a1.8,1.8,0,0,1-3.591,0v-25.4a1.8,1.8,0,0,1,1.8-1.8h46.29a1.8,1.8,0,0,1,1.8,1.8v46.29A1.8,1.8,0,0,1,288.95,397.748Z" transform="translate(-240.864 -347.866)" fill="#283046"/>
        </g>
      </g>
    </g>
  </g>
</svg>
