<svg xmlns="http://www.w3.org/2000/svg" width="31.015" height="36.853" viewBox="0 0 31.015 36.853">
  <path id="Path_1229" data-name="Path 1229" d="M8.859,0H31.015V36.853H8.859C3.966,36.853,0,33.266,0,28.841V8.011C0,3.587,3.966,0,8.859,0Z" fill="#3c4869"/>
  <path id="Path_1228" data-name="Path 1228" d="M480.471,656.065a1.75,1.75,0,0,1-.713-.6.564.564,0,0,1,.009-.7,1.618,1.618,0,0,1,.122-.131q1.932-1.932,3.865-3.864a.9.9,0,0,1,.107-.079c-.048-.05-.076-.081-.1-.11l-3.893-3.894a.556.556,0,0,1-.129-.749,2.956,2.956,0,0,1,.569-.568.53.53,0,0,1,.663.054c.03.024.058.05.086.078l4.706,4.705a.6.6,0,0,1,.138.762.872.872,0,0,1-.139.171q-2.351,2.354-4.707,4.7a1.964,1.964,0,0,1-.346.225Z" transform="translate(-465.302 -632.243)" fill="#f0e8de"/>
</svg>
