<svg xmlns="http://www.w3.org/2000/svg" xmlns:xlink="http://www.w3.org/1999/xlink" width="43.943" height="43.943" viewBox="0 0 43.943 43.943">
  <defs>
    <clipPath id="clip-path">
      <rect id="Rectangle_509" data-name="Rectangle 509" width="22.391" height="22.403" fill="#f0e8de"/>
    </clipPath>
  </defs>
  <g id="Ellipse_86" data-name="Ellipse 86" fill="none" stroke="#f0e8de" stroke-width="2">
    <ellipse cx="21.971" cy="21.971" rx="21.971" ry="21.971" stroke="none"/>
    <ellipse cx="21.971" cy="21.971" rx="20.971" ry="20.971" fill="none"/>
  </g>
  <g id="Group_1123" data-name="Group 1123" transform="translate(10.776 9.985)">
    <g id="Group_1122" data-name="Group 1122" clip-path="url(#clip-path)">
      <path id="Path_1155" data-name="Path 1155" d="M5.672,11.635a7.072,7.072,0,0,1-1.5-5.723A6.911,6.911,0,0,1,6.642,1.65a7.134,7.134,0,0,1,10.111,9.968c.575.419,1.181.8,1.721,1.265a10.875,10.875,0,0,1,3.767,6.662A14.537,14.537,0,0,1,22.39,21.3a1.014,1.014,0,1,1-2.024.067,9.569,9.569,0,0,0-.5-2.949,9,9,0,0,0-4.647-5.249.339.339,0,0,0-.275.015,7.042,7.042,0,0,1-7.492,0,.335.335,0,0,0-.274-.009,8.96,8.96,0,0,0-5.022,6.745c-.09.514-.086,1.044-.137,1.566a.951.951,0,0,1-.626.831.966.966,0,0,1-1.029-.159A.991.991,0,0,1,0,21.344a11.131,11.131,0,0,1,5.484-9.591c.054-.032.107-.067.188-.118m5.521.576a5.088,5.088,0,1,0-5.082-5.1,5.085,5.085,0,0,0,5.082,5.1" transform="translate(0 0)" fill="#f0e8de"/>
    </g>
  </g>
</svg>
