<svg xmlns="http://www.w3.org/2000/svg" xmlns:xlink="http://www.w3.org/1999/xlink" width="24.779" height="13.55" viewBox="0 0 24.779 13.55">
  <defs>
    <clipPath id="clip-path">
      <rect id="Rectangle_554" data-name="Rectangle 554" width="13.55" height="24.779" fill="#283046"/>
    </clipPath>
  </defs>
  <g id="Group_1320" data-name="Group 1320" transform="translate(24.779) rotate(90)">
    <g id="Group_1297" data-name="Group 1297" clip-path="url(#clip-path)">
      <path id="Path_1209" data-name="Path 1209" d="M5.626,20.891v-.366q0-9.6.012-19.2A1.9,1.9,0,0,1,5.7.75,1.106,1.106,0,0,1,6.88.009a1.118,1.118,0,0,1,.99,1.007c.014.148.012.3.011.448q0,9.523-.011,19.045c0,.113,0,.225,0,.406.106-.1.175-.153.238-.216q1.736-1.734,3.469-3.47A1.051,1.051,0,0,1,12.7,16.9a1.168,1.168,0,0,1,.824.913,1.021,1.021,0,0,1-.314.96c-.3.317-.619.624-.93.935q-2.312,2.314-4.624,4.627a1.138,1.138,0,0,1-1.8,0Q3.139,21.616.417,18.891a1.145,1.145,0,0,1-.37-1.19,1.11,1.11,0,0,1,1.776-.569,2.934,2.934,0,0,1,.231.216L5.4,20.682c.059.058.122.112.229.208" transform="translate(0 0)" fill="#283046"/>
    </g>
  </g>
</svg>
