<svg xmlns="http://www.w3.org/2000/svg" width="8.67" height="10.303" viewBox="0 0 8.67 10.303">
  <g id="Group_1269" data-name="Group 1269" transform="translate(-1569.884 -882.06)">
    <path id="Path_1171" data-name="Path 1171" d="M1576.944,926.914c0,.872,0,1.743,0,2.615a1.611,1.611,0,0,1-1.715,1.71h-3.66a1.608,1.608,0,0,1-1.684-1.68q0-2.655,0-5.31a1.6,1.6,0,0,1,1.664-1.679q1.87-.008,3.74,0a1.6,1.6,0,0,1,1.653,1.649C1576.95,925.117,1576.944,926.016,1576.944,926.914Zm-.805,0c0-.885,0-1.77,0-2.655a.8.8,0,0,0-.889-.884q-1.84,0-3.68,0a.807.807,0,0,0-.879.894q0,2.635,0,5.27a.813.813,0,0,0,.9.895h3.619a.822.822,0,0,0,.93-.925Q1576.14,928.211,1576.138,926.914Z" transform="translate(0 -38.876)" fill="#3c4869"/>
    <path id="Path_1172" data-name="Path 1172" d="M1630.965,886.629q0,1.478,0,2.957a1.358,1.358,0,0,1-.013.24.4.4,0,0,1-.78-.005,1.409,1.409,0,0,1-.012-.24q0-2.906,0-5.812a.81.81,0,0,0-.635-.879,1.45,1.45,0,0,0-.3-.02h-4.182c-.06,0-.121,0-.181,0a.4.4,0,0,1,.006-.8c.154-.009.308,0,.462,0h3.941a1.607,1.607,0,0,1,1.694,1.691C1630.968,884.712,1630.965,885.67,1630.965,886.629Z" transform="translate(-52.412 0)" fill="#3c4869"/>
  </g>
</svg>
