<svg xmlns="http://www.w3.org/2000/svg" width="12.5" height="14.854" viewBox="0 0 12.5 14.854">
  <g id="Group_1245" data-name="Group 1245" transform="translate(-1569.884 -882.06)">
    <path id="Path_1171" data-name="Path 1171" d="M1580.063,928.835c0,1.257,0,2.513,0,3.77a2.323,2.323,0,0,1-2.472,2.466q-2.638,0-5.276,0a2.319,2.319,0,0,1-2.428-2.422q0-3.828,0-7.656a2.311,2.311,0,0,1,2.4-2.421q2.7-.011,5.392,0a2.3,2.3,0,0,1,2.384,2.377C1580.071,926.244,1580.063,927.54,1580.063,928.835Zm-1.161,0c0-1.276,0-2.552,0-3.828a1.16,1.16,0,0,0-1.281-1.275q-2.652-.006-5.305,0a1.164,1.164,0,0,0-1.268,1.288q0,3.8,0,7.6a1.173,1.173,0,0,0,1.3,1.29q2.609,0,5.218,0a1.185,1.185,0,0,0,1.341-1.333Q1578.9,930.706,1578.9,928.835Z" transform="translate(0 -38.157)" fill="#f0e8de"/>
    <path id="Path_1172" data-name="Path 1172" d="M1633.825,888.647q0,2.131,0,4.263a1.973,1.973,0,0,1-.019.346.571.571,0,0,1-1.124-.008,2.048,2.048,0,0,1-.017-.347q0-4.19,0-8.38a1.168,1.168,0,0,0-.915-1.267,2.088,2.088,0,0,0-.432-.029q-3.015,0-6.03,0c-.087,0-.175,0-.261,0a.578.578,0,0,1,.008-1.153c.222-.013.444,0,.667,0h5.682a2.317,2.317,0,0,1,2.442,2.437C1633.828,885.883,1633.825,887.265,1633.825,888.647Z" transform="translate(-51.442 0)" fill="#f0e8de"/>
  </g>
</svg>
