<svg xmlns="http://www.w3.org/2000/svg" width="23" height="23" viewBox="0 0 23 23">
  <path id="Path_1234" data-name="Path 1234" d="M.944,12.209a1.981,1.981,0,0,1-.806-.68.638.638,0,0,1,.01-.795,1.825,1.825,0,0,1,.137-.148Q2.471,8.4,4.657,6.215a1.015,1.015,0,0,1,.121-.089C4.724,6.07,4.693,6.035,4.66,6L.255,1.6A.629.629,0,0,1,.109.749,3.347,3.347,0,0,1,.753.106.6.6,0,0,1,1.5.167c.034.028.066.057.1.088L6.924,5.579a.676.676,0,0,1,.157.862.987.987,0,0,1-.157.193Q4.263,9.3,1.6,11.955a2.217,2.217,0,0,1-.391.254Z" transform="translate(17.603 8.807) rotate(90)" fill="#3c4869"/>
  <g id="Ellipse_103" data-name="Ellipse 103" fill="none" stroke="#3c4869" stroke-width="2">
    <circle cx="11.5" cy="11.5" r="11.5" stroke="none"/>
    <circle cx="11.5" cy="11.5" r="10.5" fill="none"/>
  </g>
</svg>
