<svg id="Group_1222" data-name="Group 1222" xmlns="http://www.w3.org/2000/svg" xmlns:xlink="http://www.w3.org/1999/xlink" width="23.262" height="24" viewBox="0 0 23.262 24">
  <defs>
    <clipPath id="clip-path">
      <rect id="Rectangle_507" data-name="Rectangle 507" width="23.262" height="24" fill="#f0e8de"/>
    </clipPath>
  </defs>
  <g id="Group_1120" data-name="Group 1120" clip-path="url(#clip-path)">
    <path id="Path_1154" data-name="Path 1154" d="M15.331,17.618a9.75,9.75,0,0,1-13.2-1.895,9.6,9.6,0,0,1,.8-12.932A9.7,9.7,0,0,1,17.184,15.925c.059.063.119.131.182.2l5.445,5.64a1.281,1.281,0,0,1,.26,1.64,1.261,1.261,0,0,1-1.878.31,3.432,3.432,0,0,1-.254-.243q-2.732-2.828-5.461-5.657a2.017,2.017,0,0,1-.145-.192M9.74,2.537A7.157,7.157,0,1,0,16.913,9.7,7.184,7.184,0,0,0,9.74,2.537" transform="translate(0 0)" fill="#f0e8de"/>
  </g>
</svg>
