<svg id="Group_1349" data-name="Group 1349" xmlns="http://www.w3.org/2000/svg" xmlns:xlink="http://www.w3.org/1999/xlink" width="33.502" height="32.485" viewBox="0 0 33.502 32.485">
  <defs>
    <clipPath id="clip-path">
      <rect id="Rectangle_567" data-name="Rectangle 567" width="33.502" height="32.485" fill="#f0e8de"/>
    </clipPath>
  </defs>
  <g id="Group_1348" data-name="Group 1348" clip-path="url(#clip-path)">
    <path id="Path_1224" data-name="Path 1224" d="M16.872,0a9.106,9.106,0,0,1,4.395,1.08Q26.236,3.7,31.2,6.334a4.257,4.257,0,0,1,2.42,3.9,4.21,4.21,0,0,1-2.335,3.951c-3.365,1.832-6.731,3.667-10.136,5.425a8.845,8.845,0,0,1-8.479.013C9.243,17.86,5.858,16.017,2.474,14.172A4.192,4.192,0,0,1,.162,10.209a4.231,4.231,0,0,1,2.39-3.854q4.983-2.664,9.99-5.282A8.928,8.928,0,0,1,16.872,0m.014,18.24a19.757,19.757,0,0,0,3.128-1c3.333-1.707,6.612-3.52,9.914-5.287A1.807,1.807,0,0,0,31,10.293a1.786,1.786,0,0,0-1.067-1.663c-3.351-1.769-6.681-3.576-10.053-5.3a6.341,6.341,0,0,0-6.039.024C10.5,5.076,7.184,6.869,3.852,8.627a1.821,1.821,0,0,0-.007,3.32c3.3,1.768,6.58,3.581,9.913,5.289a19.862,19.862,0,0,0,3.128,1.005" transform="translate(-0.14 0)" fill="#f0e8de"/>
    <path id="Path_1225" data-name="Path 1225" d="M16.772,183.274a8.682,8.682,0,0,1-4.158-.975q-5.9-3.1-11.777-6.237a1.3,1.3,0,0,1-.676-1.8,1.305,1.305,0,0,1,1.9-.508c3.716,1.964,7.437,3.918,11.133,5.917a7.014,7.014,0,0,0,7.155-.019c3.648-2,7.327-3.938,10.988-5.912a1.4,1.4,0,0,1,1.648.01A1.306,1.306,0,0,1,32.677,176c-1.719.94-3.45,1.859-5.178,2.785q-3.109,1.666-6.22,3.33a9.3,9.3,0,0,1-4.507,1.158" transform="translate(-0.008 -150.789)" fill="#f0e8de"/>
    <path id="Path_1226" data-name="Path 1226" d="M16.747,138.364a9.358,9.358,0,0,1-4.508-1.155q-5.653-3.005-11.311-6c-.854-.453-1.141-1.165-.77-1.869.387-.735,1.136-.9,2.027-.426,3.656,1.937,7.324,3.852,10.96,5.826a7.044,7.044,0,0,0,7.212-.005c3.627-1.989,7.287-3.92,10.935-5.873.824-.441,1.484-.361,1.928.224a1.32,1.32,0,0,1-.623,2.047q-3.566,1.921-7.139,3.828-2.1,1.126-4.2,2.254a9.262,9.262,0,0,1-4.509,1.151" transform="translate(0 -111.764)" fill="#f0e8de"/>
  </g>
</svg>
