<svg xmlns="http://www.w3.org/2000/svg" width="27.302" height="27.323" viewBox="0 0 27.302 27.323">
  <g id="Group_1247" data-name="Group 1247" transform="translate(893.879 -1425.549) rotate(90)">
    <path id="Path_1173" data-name="Path 1173" d="M1439.243,866.577c2.119.093,4.26.109,6.387.3,3.812.338,6.357,2.641,6.819,6.43a57.13,57.13,0,0,1,0,13.833,6.974,6.974,0,0,1-6.794,6.457,73.644,73.644,0,0,1-12.922,0,7.178,7.178,0,0,1-6.918-6.966,75.931,75.931,0,0,1,0-12.764,7.2,7.2,0,0,1,7-7C1434.943,866.684,1437.085,866.669,1439.243,866.577ZM1427.632,880.2c.08,2.044.128,4.073.248,6.1a5.391,5.391,0,0,0,1.932,4.047,5.266,5.266,0,0,0,3.317,1.191c3.785.073,7.571.078,11.357.083a8.951,8.951,0,0,0,1.724-.214,5.083,5.083,0,0,0,4.264-5,77.485,77.485,0,0,0,0-12.332c-.24-2.975-1.841-4.747-4.805-5.064a60.871,60.871,0,0,0-12.97,0c-2.979.32-4.569,2.12-4.807,5.121C1427.729,876.147,1427.712,878.179,1427.632,880.2Z" fill="#3c4869"/>
    <path id="Path_1174" data-name="Path 1174" d="M1500.823,938.978H1491.7c-.145,0-.29,0-.435,0a1.078,1.078,0,0,1-1.154-1.045,1.06,1.06,0,0,1,1.143-1.051c1.177-.016,2.355-.006,3.532-.006h6.034c-.352-.383-.6-.666-.859-.93-.908-.911-1.825-1.813-2.732-2.725a1.077,1.077,0,0,1-.139-1.586,1.039,1.039,0,0,1,1.583.081c1.179,1.178,2.389,2.329,3.5,3.565,1.6,1.775,1.6,3.514.007,5.283-1.14,1.262-2.373,2.441-3.582,3.64a1.013,1.013,0,0,1-1.5.023,1.043,1.043,0,0,1,.05-1.507c.927-.943,1.874-1.867,2.807-2.8C1500.22,939.65,1500.465,939.366,1500.823,938.978Z" transform="translate(-57.544 -57.691)" fill="#3c4869"/>
  </g>
</svg>
