<svg xmlns="http://www.w3.org/2000/svg" xmlns:xlink="http://www.w3.org/1999/xlink" width="21" height="21" viewBox="0 0 21 21">
  <defs>
    <clipPath id="clip-path">
      <rect id="Rectangle_511" data-name="Rectangle 511" width="8.39" height="10.056" fill="#3c4869"/>
    </clipPath>
  </defs>
  <g id="Group_1299" data-name="Group 1299" transform="translate(-42 -287)">
    <g id="Ellipse_86" data-name="Ellipse 86" transform="translate(42 287)" fill="none" stroke="#3c4869" stroke-width="1">
      <circle cx="10.5" cy="10.5" r="10.5" stroke="none"/>
      <circle cx="10.5" cy="10.5" r="10" fill="none"/>
    </g>
    <g id="Group_1129" data-name="Group 1129" transform="translate(48.305 292.472)">
      <g id="Group_1128" data-name="Group 1128" clip-path="url(#clip-path)">
        <path id="Path_1158" data-name="Path 1158" d="M44.383,5.044q0,2.06,0,4.12a.834.834,0,0,1-1.665.1c0-.039,0-.078,0-.118q0-4.12,0-8.24a.829.829,0,0,1,.5-.834.822.822,0,0,1,1.165.751c.012.785,0,1.57,0,2.354q0,.932,0,1.864" transform="translate(-39.356 0)" fill="#3c4869"/>
        <path id="Path_1159" data-name="Path 1159" d="M1.679,45.955c0,.837,0,1.674,0,2.51a.835.835,0,0,1-1.622.28A1,1,0,0,1,0,48.4q0-2.451,0-4.9a.833.833,0,0,1,.495-.822.793.793,0,0,1,.882.118.821.821,0,0,1,.3.673q0,1.245,0,2.491" transform="translate(0 -39.243)" fill="#3c4869"/>
        <path id="Path_1160" data-name="Path 1160" d="M85.322,76.692c0-.405,0-.81,0-1.215a.841.841,0,0,1,.826-.867.831.831,0,0,1,.847.826q.022,1.264,0,2.528a.829.829,0,0,1-.856.835.839.839,0,0,1-.818-.873c0-.412,0-.823,0-1.235" transform="translate(-78.616 -68.747)" fill="#3c4869"/>
      </g>
    </g>
  </g>
</svg>
