<svg xmlns="http://www.w3.org/2000/svg" width="19" height="19" viewBox="0 0 19 19">
  <g id="Rectangle_518" data-name="Rectangle 518" fill="none" stroke="#283046" stroke-width="1">
    <rect width="19" height="19" rx="5" stroke="none"/>
    <rect x="0.5" y="0.5" width="18" height="18" rx="4.5" fill="none"/>
  </g>
  <path id="Path_1218" data-name="Path 1218" d="M-354.209,347.072a2.187,2.187,0,0,1,.392.23c.921.784,1.833,1.577,2.748,2.367.451.389.752.376,1.154-.052q2.729-2.907,5.46-5.813a1.258,1.258,0,0,1,.309-.256.628.628,0,0,1,.769.167.567.567,0,0,1-.014.758c-.292.332-.6.651-.9.974l-5.574,5.943c-.456.486-.737.5-1.234.046q-1.8-1.624-3.59-3.248a.593.593,0,0,1-.214-.735A.672.672,0,0,1-354.209,347.072Z" transform="translate(358.681 -337.447)" fill="#283046"/>
</svg>
