<svg id="Group_1135" data-name="Group 1135" xmlns="http://www.w3.org/2000/svg" xmlns:xlink="http://www.w3.org/1999/xlink" width="14.922" height="13.905" viewBox="0 0 14.922 13.905">
  <defs>
    <clipPath id="clip-path">
      <rect id="Rectangle_512" data-name="Rectangle 512" width="14.922" height="13.905" fill="#f0e8de"/>
    </clipPath>
  </defs>
  <g id="Group_1134" data-name="Group 1134" clip-path="url(#clip-path)">
    <path id="Path_1161" data-name="Path 1161" d="M7.452,1.228c.191-.152.365-.307.555-.439a4.353,4.353,0,0,1,6.5,1.871,4.687,4.687,0,0,1-.918,5.206Q11.8,9.725,10.015,11.582a.727.727,0,0,1-.651.252.728.728,0,0,1-.427-1.23c.453-.474.91-.944,1.363-1.417.8-.83,1.617-1.639,2.382-2.5a3.222,3.222,0,0,0-.376-4.574,2.86,2.86,0,0,0-4.172.561.85.85,0,0,1-.514.4.728.728,0,0,1-.791-.334A2.936,2.936,0,0,0,5.6,1.708,2.889,2.889,0,0,0,1.813,3.12,3.256,3.256,0,0,0,2.39,6.877q2.774,2.869,5.545,5.741a.737.737,0,0,1,.208.809.727.727,0,0,1-1.224.239c-.641-.657-1.275-1.32-1.912-1.98Q3.167,9.779,1.328,7.87a4.7,4.7,0,0,1-.2-6.324,4.31,4.31,0,0,1,6.2-.431l.126.113" transform="translate(0 0)" fill="#f0e8de"/>
  </g>
</svg>
