<svg xmlns="http://www.w3.org/2000/svg" width="19.276" height="17.92" viewBox="0 0 19.276 17.92">
  <path id="Path_1195" data-name="Path 1195" d="M1590.365,1014.668h2.154a4.176,4.176,0,0,1,2.15-2.94,4.045,4.045,0,0,1,2.794-.4,4.132,4.132,0,0,1-.265,8.131c-2.118.344-3.809-.868-4.705-3.395-.632,0-1.276-.017-1.918.017-.108.006-.256.218-.3.36a4.156,4.156,0,1,1-.039-2.234C1590.279,1014.347,1590.315,1014.486,1590.365,1014.668Zm-1.338.717a2.752,2.752,0,1,0-2.784,2.738A2.749,2.749,0,0,0,1589.028,1015.385Zm10.329-.025a2.752,2.752,0,1,0-2.76,2.763A2.749,2.749,0,0,0,1599.357,1015.361Z" transform="translate(-1581.802 -1001.599)" fill="#f0e8de"/>
  <path id="Path_1196" data-name="Path 1196" d="M1580.344,906.129c.359-1.742.709-3.438,1.057-5.134a1.949,1.949,0,0,1,2.126-1.757q4.279,0,8.558,0a1.954,1.954,0,0,1,2.129,1.757c.318,1.572.646,3.143.938,4.72.065.354.208.442.535.417a8.719,8.719,0,0,1,1.031,0,.686.686,0,1,1,.01,1.372c-.114.007-.229,0-.344,0h-17.2c-.115,0-.23.005-.344,0a.685.685,0,1,1,0-1.369C1579.322,906.114,1579.809,906.129,1580.344,906.129Zm13.49-.024c-.347-1.72-.679-3.39-1.025-5.056a.546.546,0,0,0-.609-.433c-.673,0-1.347,0-2.02,0q-3.331,0-6.662,0c-.558,0-.7.119-.807.673-.048.239-.094.478-.141.716l-.816,4.1Z" transform="translate(-1578.151 -899.236)" fill="#f0e8de"/>
</svg>
