<svg xmlns="http://www.w3.org/2000/svg" width="36.156" height="36.16" viewBox="0 0 36.156 36.16">
  <path id="Path_1027" data-name="Path 1027" d="M-349.435,225.977h-.424c-2.777,0-5.553.005-8.33,0a3.064,3.064,0,0,1-2.985-1.805,3.546,3.546,0,0,1-.329-1.459q-.03-11.595-.01-23.19a3.169,3.169,0,0,1,3.285-3.268q5.347-.015,10.695,0a3.244,3.244,0,0,1,3.316,3.2c.114,1.062.259,2.12.4,3.222h15.077A3.1,3.1,0,0,1-325.7,204.5a3.555,3.555,0,0,1,.32,1.461q.029,11.577.011,23.154a3.168,3.168,0,0,1-3.27,3.283q-8.542.015-17.083,0a3.238,3.238,0,0,1-3.295-3.184c-.11-1.017-.243-2.031-.367-3.046A1.575,1.575,0,0,0-349.435,225.977Zm4.081,4.306h16.564c.921,0,1.3-.384,1.3-1.308q0-11.434,0-22.868c0-.926-.382-1.311-1.3-1.311h-14.752c.006.1.007.156.014.214q.459,3.692.919,7.383.757,6.106,1.518,12.212a1.329,1.329,0,0,1-.336,1.134c-.369.411-.726.834-1.087,1.253Zm2.021-6.425c-.007-.093-.01-.15-.017-.206q-.6-4.847-1.208-9.694-.9-7.227-1.792-14.455a1.134,1.134,0,0,0-1.292-1.133h-10.448c-.925,0-1.309.383-1.309,1.3q0,11.436,0,22.873c0,.926.382,1.311,1.3,1.311h14.763Zm-3.586,4.991,2.465-2.853h-2.816Z" transform="translate(361.52 -196.246)" fill="#161d31"/>
  <path id="Path_1028" data-name="Path 1028" d="M-205.678,304.721c-.851.69-1.655,1.36-2.479,2.005a1.054,1.054,0,0,1-1.736-.534,1.043,1.043,0,0,1,.418-1.12q.945-.768,1.889-1.537c.136-.111.266-.228.4-.346a15.436,15.436,0,0,1-1.015-1.49c-.493-.931-.925-1.9-1.362-2.854-.089-.2-.141-.321-.4-.327a1.035,1.035,0,0,1-1.023-1.045,1.049,1.049,0,0,1,1.054-1.057c.917-.015,1.836,0,2.753-.005h.426c0-.349-.005-.674,0-1a1.065,1.065,0,0,1,1.069-1.117,1.064,1.064,0,0,1,1.048,1.1c.007.326,0,.653,0,1.013h2.53c.235,0,.471-.01.706.006a1.058,1.058,0,0,1,1,1.041,1.023,1.023,0,0,1-.974,1.054c-.31.006-.386.146-.466.388a12.731,12.731,0,0,1-2.008,3.779c-.121.157-.237.317-.379.507l1.946,1.592c.118.1.242.188.359.285a1.064,1.064,0,0,1,.241,1.528,1.055,1.055,0,0,1-1.565.124c-.682-.54-1.35-1.1-2.023-1.651C-205.4,304.953-205.537,304.839-205.678,304.721Zm-1.736-6.182a10.766,10.766,0,0,0,1.723,3.063,10.708,10.708,0,0,0,1.717-3.063Z" transform="translate(232.243 -280.449)" fill="#161d31"/>
  <path id="Path_1029" data-name="Path 1029" d="M-317.782,257.742H-320.7c-.22,1.1-.435,2.189-.659,3.278a1.064,1.064,0,0,1-1.506.84,1.064,1.064,0,0,1-.584-1.2q.846-4.25,1.7-8.5c.127-.633.253-1.267.385-1.9a1.1,1.1,0,0,1,1.2-1c.623-.006,1.247-.007,1.87,0a1.093,1.093,0,0,1,1.179.982q1.046,5.2,2.083,10.4a1.073,1.073,0,0,1-.826,1.309,1.078,1.078,0,0,1-1.256-.906c-.117-.551-.224-1.1-.335-1.658S-317.671,258.3-317.782,257.742Zm-1.653-6.357-.837,4.2h2.059l-.841-4.2Z" transform="translate(328.849 -241.766)" fill="#161d31"/>
</svg>
