<svg id="Group_1304" data-name="Group 1304" xmlns="http://www.w3.org/2000/svg" xmlns:xlink="http://www.w3.org/1999/xlink" width="31.146" height="31.146" viewBox="0 0 31.146 31.146">
  <defs>
    <clipPath id="clip-path">
      <rect id="Rectangle_555" data-name="Rectangle 555" width="31.146" height="31.146" fill="#eae6e1"/>
    </clipPath>
  </defs>
  <g id="Group_1303" data-name="Group 1303" clip-path="url(#clip-path)">
    <path id="Path_1211" data-name="Path 1211" d="M3.521,0A3.546,3.546,0,0,0,0,3.521V27.461a3.546,3.546,0,0,0,3.521,3.521H27.461a3.546,3.546,0,0,0,3.521-3.521V3.521A3.546,3.546,0,0,0,27.461,0Zm0,2.817H27.461a.689.689,0,0,1,.7.7V27.461a.689.689,0,0,1-.7.7H3.521a.689.689,0,0,1-.7-.7V3.521a.689.689,0,0,1,.7-.7M7.657,5.237a2.42,2.42,0,1,0,2.421,2.421A2.419,2.419,0,0,0,7.657,5.237m12.72,6.425a4.341,4.341,0,0,0-3.916,2.156h-.089V11.97h-3.96V25.349h4.136v-6.6c0-1.743.346-3.432,2.508-3.432,2.129,0,2.157,1.969,2.157,3.521v6.513h4.136V18c0-2.856-.482-5.172-3.064-6.1a6.148,6.148,0,0,0-1.908-.242M5.633,25.349H9.814V11.97H5.633Z" transform="translate(0 0)" fill="#eae6e1"/>
  </g>
</svg>
