<svg xmlns="http://www.w3.org/2000/svg" xmlns:xlink="http://www.w3.org/1999/xlink" width="16.879" height="21.713" viewBox="0 0 16.879 21.713">
  <defs>
    <clipPath id="clip-path">
      <rect id="Rectangle_465" data-name="Rectangle 465" width="16.879" height="21.713" fill="#f0e8de"/>
    </clipPath>
  </defs>
  <g id="Group_1005" data-name="Group 1005" clip-path="url(#clip-path)">
    <path id="Path_1086" data-name="Path 1086" d="M16.866,14.881c.018-.589.016-1.178,0-1.767q.024-.876,0-1.752c.012-.564.012-1.127,0-1.691a2.724,2.724,0,0,0-.521-1.764,2.852,2.852,0,0,0-.985-.7c-.448-.258-.977-.032-1.435-.237-.239-.271-.131-.6-.124-.9a8.8,8.8,0,0,0-.271-2.392,1.757,1.757,0,0,0-.637-1.158A5.712,5.712,0,0,0,10.2.277,7.545,7.545,0,0,0,8.084,0L6.673.273a5.994,5.994,0,0,0-2.7,2.233A3,3,0,0,0,3.2,4.233c-.2.956-.042,1.148.942,1.156a4.568,4.568,0,0,0,.7-.023c.581-.075.536-.565.634-.959a2.913,2.913,0,0,1,1.28-1.77c.05-.026.1-.052.148-.081a3.166,3.166,0,0,1,3.3.139,3.147,3.147,0,0,1,1.106,1.479,6.845,6.845,0,0,1,.142,1.889c-.036.9.209,1.017-1.029.984-.1,0-.192.006-.288,0C9.57,7.03,9,7.035,8.427,7.048c-.587-.018-1.174-.016-1.761,0q-.879-.025-1.758,0c-.573-.013-1.146-.017-1.72,0a3.672,3.672,0,0,0-1.806.223,2.535,2.535,0,0,0-.725.5A2.4,2.4,0,0,0,.015,9.684q-.02.845,0,1.691c-.019.584-.016,1.168,0,1.752C0,13.716,0,14.3.013,14.894q-.026.881,0,1.763C0,17.235,0,17.812.016,18.391A7.327,7.327,0,0,0,.1,20.134c.238.623.51,1.214,1.26,1.362a4.132,4.132,0,0,0,1.558.191c1.25-.1,2.5.023,3.747.027,2.467-.009,4.934-.021,7.4-.023a4.75,4.75,0,0,0,1.444-.2c.848-.172,1.089-.859,1.316-1.555a12.086,12.086,0,0,0,.034-1.551c.02-.58.016-1.16,0-1.74.018-.588.016-1.176,0-1.765M14.8,18.941a.645.645,0,0,1-.645.645H2.844a.645.645,0,0,1-.645-.645V9.952a.645.645,0,0,1,.645-.645H14.153a.645.645,0,0,1,.645.645Z" transform="translate(0 -0.001)" fill="#f0e8de"/>
    <path id="Path_1087" data-name="Path 1087" d="M57.942,106.232a2.086,2.086,0,0,1-1.535,2.367,2.118,2.118,0,0,1-2.255-.853.57.57,0,0,1-.269-.689c-.016-1.354.381-2.017,1.4-2.4a4.083,4.083,0,0,1,.861-.1,1.678,1.678,0,0,1,1.8,1.679" transform="translate(-47.474 -92.167)" fill="#f0e8de"/>
  </g>
</svg>
