<svg xmlns="http://www.w3.org/2000/svg" xmlns:xlink="http://www.w3.org/1999/xlink" width="37.033" height="37.033" viewBox="0 0 37.033 37.033">
  <defs>
    <clipPath id="clip-path">
      <rect id="Rectangle_503" data-name="Rectangle 503" width="26.429" height="25.944" fill="#283046"/>
    </clipPath>
  </defs>
  <g id="Group_1220" data-name="Group 1220" transform="translate(18.345 0) rotate(45)">
    <g id="Group_1112" data-name="Group 1112" transform="translate(0 0)" clip-path="url(#clip-path)">
      <path id="Path_1140" data-name="Path 1140" d="M199.186,0a3.084,3.084,0,1,1-3.094,3.079A3.088,3.088,0,0,1,199.186,0" transform="translate(-175.849 -0.004)" fill="#283046"/>
      <path id="Path_1141" data-name="Path 1141" d="M3.093,102.048a3.088,3.088,0,1,1,3.092-3.082,3.091,3.091,0,0,1-3.092,3.082" transform="translate(0 -85.974)" fill="#283046"/>
      <path id="Path_1142" data-name="Path 1142" d="M103.115,98.968a3.088,3.088,0,1,1-3.077-3.1,3.088,3.088,0,0,1,3.077,3.1" transform="translate(-86.932 -85.974)" fill="#283046"/>
      <path id="Path_1143" data-name="Path 1143" d="M100.729,0a3.084,3.084,0,1,1-3.086,3.087A3.082,3.082,0,0,1,100.729,0" transform="translate(-87.563 -0.003)" fill="#283046"/>
      <path id="Path_1144" data-name="Path 1144" d="M3.761,197.724a3.084,3.084,0,1,1,3.086-3.079,3.094,3.094,0,0,1-3.086,3.079" transform="translate(-0.598 -171.779)" fill="#283046"/>
      <path id="Path_1145" data-name="Path 1145" d="M201.569,98.957a3.086,3.086,0,1,1-3.082-3.088,3.079,3.079,0,0,1,3.082,3.088" transform="translate(-175.225 -85.972)" fill="#283046"/>
      <path id="Path_1146" data-name="Path 1146" d="M100.652,197.723a3.084,3.084,0,1,1,3.088-3.083,3.095,3.095,0,0,1-3.088,3.083" transform="translate(-87.482 -171.779)" fill="#283046"/>
      <path id="Path_1147" data-name="Path 1147" d="M199.118,197.723a3.084,3.084,0,1,1,3.089-3.083,3.091,3.091,0,0,1-3.089,3.083" transform="translate(-175.785 -171.778)" fill="#283046"/>
      <path id="Path_1148" data-name="Path 1148" d="M3.917,0A3.085,3.085,0,1,1,.826,3.074,3.077,3.077,0,0,1,3.917,0" transform="translate(-0.74 0)" fill="#283046"/>
    </g>
  </g>
</svg>
