<svg id="Group_1302" data-name="Group 1302" xmlns="http://www.w3.org/2000/svg" width="30.085" height="34.385" viewBox="0 0 30.085 34.385">
  <path id="Path_1040" data-name="Path 1040" d="M-278.171,141.069h-3.222v.372q0,3.525,0,7.049a1.072,1.072,0,0,1-1.442,1.088,1.041,1.041,0,0,1-.7-.971c-.007-.111,0-.224,0-.336V133.554h-3.222v.339c0,.918,0,1.835,0,2.753a1.081,1.081,0,0,1-1.191,1.184q-4.179,0-8.359,0a1.083,1.083,0,0,1-1.194-1.182q0-4.2,0-8.392a1.073,1.073,0,0,1,1.17-1.169q4.2,0,8.392,0a1.084,1.084,0,0,1,1.181,1.194c0,1.017,0,2.035,0,3.077h3.222v-.389q0-7.2,0-14.4a2.144,2.144,0,0,1,.03-.467,1.071,1.071,0,0,1,1.145-.828,1.075,1.075,0,0,1,.972,1.1c.006,1.634,0,3.267,0,4.9v.422h3.222v-1.975c0-.392,0-.783,0-1.175a1.065,1.065,0,0,1,1.115-1.122q4.247-.006,8.493,0a1.07,1.07,0,0,1,1.134,1.139q.006,3.189,0,6.378c0,.694,0,1.388,0,2.081a1.068,1.068,0,0,1-1.129,1.144q-4.247.006-8.493,0a1.066,1.066,0,0,1-1.12-1.119c-.006-1.04,0-2.081,0-3.149h-3.2v14.993h3.2v-.347q0-1.36,0-2.719a1.085,1.085,0,0,1,1.2-1.212q4.179,0,8.359,0a1.084,1.084,0,0,1,1.189,1.186q0,4.179,0,8.359a1.086,1.086,0,0,1-1.209,1.2q-4.162,0-8.325,0a1.089,1.089,0,0,1-1.209-1.2C-278.172,143.134-278.171,142.117-278.171,141.069ZM-276,119.582v6.4h6.4v-6.4Zm-19.347,16.081h6.409v-6.4h-6.409ZM-276,136.772v6.4h6.4v-6.4Z" transform="translate(297.51 -115.268)" fill="#dfdeda"/>
</svg>
