<svg id="Group_1355" data-name="Group 1355" xmlns="http://www.w3.org/2000/svg" xmlns:xlink="http://www.w3.org/1999/xlink" width="32.614" height="32.612" viewBox="0 0 32.614 32.612">
  <defs>
    <clipPath id="clip-path">
      <rect id="Rectangle_569" data-name="Rectangle 569" width="32.614" height="32.612" fill="#f0e8de"/>
    </clipPath>
  </defs>
  <g id="Group_1354" data-name="Group 1354" clip-path="url(#clip-path)">
    <path id="Path_1230" data-name="Path 1230" d="M15.162,8.785c0,1.866.007,3.731,0,5.6a2.877,2.877,0,0,1-3.09,3.086q-4.47.012-8.94,0a2.877,2.877,0,0,1-3.1-3.074Q.015,8.725.028,3.056A2.866,2.866,0,0,1,3.081.007q4.506-.015,9.013,0A2.876,2.876,0,0,1,15.16,3.116c.008,1.89,0,3.779,0,5.669M2.356,8.7q0,2.728,0,5.456c0,.879.1.98.945.981q4.292.005,8.584,0c.848,0,.944-.1.945-.982q0-5.42,0-10.839c0-.879-.1-.979-.946-.98q-4.292-.005-8.584,0c-.849,0-.943.1-.944.981q0,2.692,0,5.383" transform="translate(-0.018 0)" fill="#f0e8de"/>
    <path id="Path_1231" data-name="Path 1231" d="M135.162,112.772c0,1.866.007,3.731,0,5.6a2.879,2.879,0,0,1-3.082,3.095q-4.507.013-9.013,0a2.867,2.867,0,0,1-3.038-3.064q-.013-5.669,0-11.339A2.866,2.866,0,0,1,123.073,104q4.543-.016,9.085,0a2.859,2.859,0,0,1,3,3.026c.012,1.914,0,3.828,0,5.742m-12.806-.039q0,2.692,0,5.383c0,.929.083,1.017.982,1.017q4.256,0,8.511,0c.879,0,.98-.1.981-.946,0-3.637-.01-7.275.011-10.912,0-.677-.211-.962-.92-.955q-4.328.037-8.657,0c-.711-.006-.929.281-.919.957.029,1.818.01,3.637.01,5.456" transform="translate(-102.554 -88.86)" fill="#f0e8de"/>
    <path id="Path_1232" data-name="Path 1232" d="M127.628.007c1.5,0,3-.01,4.506,0a2.862,2.862,0,0,1,3.007,3.02q.019,3.379,0,6.758a2.86,2.86,0,0,1-3,3.024q-4.578.02-9.156,0a2.851,2.851,0,0,1-2.971-2.982q-.022-3.415,0-6.831A2.854,2.854,0,0,1,122.977.011c1.55-.016,3.1,0,4.651,0m.021,2.33c-1.455,0-2.91.021-4.364-.009-.675-.014-.967.206-.957.918q.045,3.164,0,6.328c-.01.712.282.925.956.919q4.292-.033,8.583,0c.674.005.967-.206.957-.919q-.045-3.164,0-6.328c.01-.713-.282-.934-.957-.919-1.406.031-2.813.009-4.219.009" transform="translate(-102.536 -0.002)" fill="#f0e8de"/>
    <path id="Path_1233" data-name="Path 1233" d="M7.63,136.008c1.5,0,3-.01,4.506,0a2.863,2.863,0,0,1,3,3.023q.019,3.379,0,6.758a2.859,2.859,0,0,1-3.006,3.021q-4.578.019-9.156,0A2.851,2.851,0,0,1,.01,145.826q-.022-3.415,0-6.831a2.855,2.855,0,0,1,2.969-2.984c1.55-.016,3.1,0,4.651,0m-.055,10.477c1.431,0,2.862-.021,4.291.009.675.015.967-.207.957-.919q-.044-3.164,0-6.328c.01-.713-.284-.924-.957-.918q-4.292.033-8.583,0c-.674-.005-.966.207-.956.919q.045,3.164,0,6.328c-.01.713.282.933.957.919,1.43-.031,2.861-.009,4.292-.009" transform="translate(0.001 -116.21)" fill="#f0e8de"/>
  </g>
</svg>
