<svg id="Group_1351" data-name="Group 1351" xmlns="http://www.w3.org/2000/svg" xmlns:xlink="http://www.w3.org/1999/xlink" width="36.056" height="36.083" viewBox="0 0 36.056 36.083">
  <defs>
    <clipPath id="clip-path">
      <rect id="Rectangle_568" data-name="Rectangle 568" width="36.056" height="36.083" fill="#f0e8de"/>
    </clipPath>
  </defs>
  <g id="Group_1350" data-name="Group 1350" clip-path="url(#clip-path)">
    <path id="Path_1227" data-name="Path 1227" d="M19,4.23C19.61,1.477,20.98.087,23.085.005c2.316-.09,3.606,1.1,4.551,4.224h4.17V8.49a4.41,4.41,0,0,1,3.456,1.817,4.168,4.168,0,0,1,.792,2.578c-.052,2.129-1.276,3.361-4.227,4.2,0,.966,0,1.949,0,2.931A15.922,15.922,0,1,1,16.022,4.231c.985-.005,1.969,0,2.975,0M29.729,19.1V14.23c.517.182.933.335,1.353.476A2.052,2.052,0,0,0,33.528,14a2.088,2.088,0,0,0-.01-2.5,2.051,2.051,0,0,0-2.453-.687c-.432.145-.863.293-1.372.466V6.335h-4.92c.189-.534.354-.97.5-1.413a2.052,2.052,0,0,0-.717-2.385,2.089,2.089,0,0,0-2.5-.006,2.054,2.054,0,0,0-.728,2.382c.148.46.318.913.506,1.451H17.019V8.289a15.992,15.992,0,0,1,2.5,1.146,4.011,4.011,0,0,1,1.523,4.375A4.167,4.167,0,0,1,17.6,16.941c-.227.045-.589.215-.607.362a15.056,15.056,0,0,0-.029,1.817H21.8c-.143.407-.248.712-.357,1.017a2.19,2.19,0,0,0,.624,2.783,2.126,2.126,0,0,0,2.5-.021,2.2,2.2,0,0,0,.586-2.793c-.108-.3-.2-.6-.341-1.008ZM2.173,21.225A13.681,13.681,0,0,0,14.8,33.853V31.864c-2.849-.717-4.159-2.068-4.176-4.279s1.264-3.563,4.162-4.338V21.174H10.014c.173-.493.32-.888.451-1.288a2.12,2.12,0,0,0-.739-2.508,2.143,2.143,0,0,0-2.443.005,2.12,2.12,0,0,0-.73,2.51c.135.412.279.82.454,1.332ZM14.847,6.471A13.578,13.578,0,0,0,2.215,19.1c.487,0,.974-.023,1.459.007.436.027.613-.117.666-.574a3.978,3.978,0,0,1,1.838-2.948,4.236,4.236,0,0,1,6.514,2.859c.039.234.253.6.427.622a12.283,12.283,0,0,0,1.75.03v-4.83c.5.173.891.315,1.287.445a2.117,2.117,0,0,0,2.513-.719A2.109,2.109,0,0,0,16.182,10.8c-.414.135-.824.282-1.335.457Zm2.106,27.412A13.678,13.678,0,0,0,29.6,21.267H27.653A14.1,14.1,0,0,1,27.06,23.1a4.153,4.153,0,0,1-4.438,2.278,4.261,4.261,0,0,1-3.5-3.5c-.04-.233-.206-.612-.349-.629a15.613,15.613,0,0,0-1.848-.03v4.817c-.5-.172-.908-.326-1.326-.459a2.109,2.109,0,1,0,.016,3.938c.416-.134.827-.282,1.338-.457Z" transform="translate(0 -0.001)" fill="#f0e8de"/>
  </g>
</svg>
